<svg width="1440" height="201" viewBox="0 0 1440 201" fill="none" xmlns="http://www.w3.org/2000/svg">
<g clip-path="url(#clip0_17_2369)">
<rect width="1440" height="201" fill="#2F5382"/>
<g opacity="0.4">
<path d="M1313.49 132.386C1313.49 133.063 1313.56 133.722 1313.71 134.355C1313.08 134.209 1312.42 134.132 1311.74 134.132C1306.92 134.132 1303.02 138.041 1303.02 142.864C1303.02 147.686 1306.92 151.595 1311.74 151.595C1314.39 151.595 1317.18 151.023 1319.55 152.201C1322.32 153.576 1324.86 155.397 1327.07 157.607L1331.91 162.448C1334.12 164.658 1335.94 167.202 1337.31 169.972C1338.49 172.346 1337.92 175.14 1337.92 177.79C1337.92 182.613 1341.82 186.522 1346.64 186.522C1351.46 186.522 1355.37 182.613 1355.37 177.79C1355.37 177.113 1355.29 176.454 1355.14 175.821C1355.78 175.967 1356.44 176.044 1357.11 176.044C1361.93 176.044 1365.84 172.135 1365.84 167.312C1365.84 162.49 1361.93 158.581 1357.11 158.581C1354.46 158.581 1351.67 159.154 1349.3 157.975C1346.53 156.6 1343.99 154.779 1341.78 152.569L1336.94 147.728C1334.74 145.518 1332.92 142.975 1331.54 140.206C1330.36 137.832 1330.94 135.037 1330.94 132.386C1330.94 127.563 1327.03 123.654 1322.21 123.654C1317.39 123.654 1313.49 127.563 1313.49 132.386Z" stroke="white" stroke-width="2" stroke-linecap="round" stroke-linejoin="round"/>
</g>
<g opacity="0.4" clip-path="url(#clip1_17_2369)">
<path d="M1251.21 44.6456L1261.44 37.5119C1262.2 36.9847 1263.07 36.6457 1263.99 36.5231C1264.9 36.4004 1265.83 36.4977 1266.7 36.8067L1279.39 41.3305L1279.41 41.3402C1285.93 43.7692 1290.52 46.7235 1291.76 53.2463C1292.91 59.3181 1291.05 68.2342 1285.53 83.0592L1284.86 84.8709L1280.72 83.3287L1278.32 97.9099L1274.63 96.5342L1277.03 81.953L1275.8 81.496C1272.84 80.42 1270.41 78.2195 1269.05 75.3696C1267.82 72.8136 1267.37 69.7802 1267.76 66.5972L1267.76 66.5686L1270.2 50.52L1273.9 51.8991L1271.59 67.0916C1271.11 71.126 1272.31 76.0683 1277.15 77.8725L1282.58 79.8949C1287.25 67.0324 1288.92 58.9931 1287.96 53.9674C1287.16 49.7488 1284.58 47.3923 1278.08 44.9679L1265.4 40.4491C1265.11 40.3461 1264.8 40.3136 1264.5 40.3545C1264.19 40.3954 1263.9 40.5084 1263.65 40.6842L1252.08 48.7526L1241.35 46.6708L1240.63 48.5911L1238.97 58.2127C1238.48 61.0525 1238.83 62.7065 1242.16 64.4254L1255.54 72.2007L1250.01 87.3538L1246.39 86.0038L1250.8 73.9168L1240.35 67.8393C1237.93 66.5847 1236.37 65.0728 1235.57 63.2182C1234.89 61.6326 1234.76 59.886 1235.16 57.5537L1236.89 47.5779L1238.87 42.2512L1251.21 44.6456Z" fill="white"/>
</g>
<g opacity="0.4" clip-path="url(#clip2_17_2369)">
<path d="M1402.31 106.218L1403.86 89.888C1403.98 88.6796 1404.38 87.5161 1405.03 86.4939C1405.69 85.4718 1406.58 84.6205 1407.62 84.0105L1422.94 75.1229L1422.97 75.105C1430.95 70.631 1437.81 68.5328 1445.4 72.835C1452.47 76.8392 1459.82 86.2884 1469.98 104.429L1471.23 106.647L1466.16 109.487L1478.74 124.286L1474.22 126.82L1461.65 112.021L1460.15 112.863C1456.55 114.926 1452.28 115.488 1448.27 114.43C1444.66 113.498 1441.24 111.37 1438.38 108.276L1438.35 108.248L1424.34 92.1588L1428.87 89.6187L1442.13 104.85C1445.76 108.763 1451.74 111.752 1457.66 108.429L1464.3 104.704C1455.39 89.0762 1448.74 80.5724 1442.9 77.2577C1437.99 74.475 1433.43 75.0696 1425.47 79.5299L1410.17 88.4082C1409.82 88.6115 1409.53 88.8953 1409.31 89.236C1409.09 89.5767 1408.96 89.9646 1408.92 90.3674L1407.17 108.838L1395.96 117.839L1397.28 120.189L1405.5 130.037C1407.93 132.944 1409.89 133.996 1414.44 132.115L1433.61 125.295L1444.09 143.73L1439.66 146.216L1431.3 131.512L1416.32 136.839C1413.01 138.196 1410.17 138.479 1407.63 137.706C1405.46 137.044 1403.6 135.685 1401.61 133.298L1393.08 123.088L1389.42 116.569L1402.31 106.218Z" fill="white"/>
</g>
<g opacity="0.5">
<path d="M1324.8 96.1665C1326.24 95.3669 1327.31 94.0276 1327.76 92.4422C1328.34 90.4581 1329.54 88.7147 1331.19 87.4741C1332.85 86.2335 1334.85 85.5627 1336.92 85.5626C1338.98 85.5624 1340.99 86.2329 1342.64 87.4733C1344.3 88.7137 1345.5 90.4569 1346.08 92.441C1346.53 94.0268 1347.6 95.3667 1349.04 96.1665C1351.01 97.2396 1352.49 99.0295 1353.18 101.166C1353.87 103.302 1353.71 105.622 1352.74 107.644C1351.77 109.667 1350.05 111.238 1347.96 112.033C1345.86 112.828 1343.54 112.785 1341.47 111.914C1338.55 110.713 1335.28 110.713 1332.37 111.914C1330.3 112.786 1327.98 112.829 1325.88 112.034C1323.78 111.24 1322.07 109.668 1321.1 107.645C1320.12 105.622 1319.97 103.302 1320.66 101.166C1321.34 99.0292 1322.83 97.2393 1324.8 96.1665ZM1328.97 107.828C1329.51 107.829 1330.03 107.723 1330.52 107.515C1330.53 107.511 1330.54 107.507 1330.55 107.504C1334.63 105.818 1339.21 105.818 1343.29 107.504C1343.3 107.507 1343.31 107.511 1343.32 107.515C1344.26 107.913 1345.31 107.934 1346.27 107.572C1347.22 107.211 1348 106.496 1348.45 105.575C1348.89 104.654 1348.96 103.598 1348.65 102.626C1348.33 101.654 1347.65 100.84 1346.76 100.354C1346.75 100.35 1346.74 100.346 1346.73 100.342C1345.47 99.6448 1344.36 98.7058 1343.46 97.5785C1342.56 96.4512 1341.9 95.1578 1341.5 93.7721C1341.21 92.7803 1340.61 91.9089 1339.78 91.2888C1338.96 90.6688 1337.95 90.3337 1336.92 90.3338C1335.89 90.3339 1334.88 90.6692 1334.06 91.2894C1333.23 91.9096 1332.63 92.7811 1332.34 93.773C1331.94 95.1585 1331.27 96.4518 1330.38 97.5789C1329.48 98.7061 1328.37 99.6449 1327.1 100.342C1327.1 100.346 1327.09 100.35 1327.08 100.354C1326.31 100.775 1325.69 101.443 1325.34 102.253C1324.98 103.064 1324.91 103.969 1325.12 104.827C1325.34 105.685 1325.84 106.446 1326.53 106.989C1327.23 107.533 1328.09 107.828 1328.97 107.828ZM1316.26 87.9482C1316.26 88.8918 1316.54 89.8143 1317.06 90.5989C1317.59 91.3835 1318.33 91.9951 1319.2 92.3562C1320.07 92.7173 1321.03 92.8118 1321.96 92.6277C1322.88 92.4436 1323.73 91.9892 1324.4 91.3219C1325.07 90.6546 1325.52 89.8045 1325.7 88.879C1325.89 87.9534 1325.79 86.9941 1325.43 86.1223C1325.07 85.2505 1324.46 84.5053 1323.68 83.981C1322.89 83.4568 1321.97 83.1769 1321.03 83.1769C1320.4 83.1769 1319.78 83.3004 1319.2 83.5401C1318.62 83.7799 1318.1 84.1313 1317.66 84.5744C1317.21 85.0174 1316.86 85.5434 1316.62 86.1223C1316.38 86.7012 1316.26 87.3216 1316.26 87.9482ZM1352.81 92.7194C1353.75 92.7194 1354.68 92.4395 1355.46 91.9153C1356.24 91.391 1356.86 90.6458 1357.22 89.774C1357.58 88.9022 1357.67 87.9429 1357.49 87.0173C1357.3 86.0918 1356.85 85.2417 1356.18 84.5744C1355.52 83.9071 1354.67 83.4527 1353.74 83.2686C1352.82 83.0845 1351.86 83.179 1350.99 83.5401C1350.12 83.9013 1349.37 84.5128 1348.85 85.2974C1348.32 86.082 1348.04 87.0045 1348.04 87.9482C1348.04 88.5747 1348.17 89.1952 1348.41 89.774C1348.65 90.3529 1349 90.8789 1349.44 91.3219C1349.88 91.765 1350.41 92.1164 1350.99 92.3562C1351.57 92.596 1352.19 92.7194 1352.81 92.7194ZM1348.04 78.4057C1348.04 77.4621 1347.76 76.5396 1347.24 75.755C1346.72 74.9704 1345.97 74.3588 1345.1 73.9977C1344.23 73.6366 1343.27 73.5421 1342.35 73.7262C1341.42 73.9103 1340.57 74.3647 1339.91 75.032C1339.24 75.6992 1338.78 76.5494 1338.6 77.4749C1338.42 78.4004 1338.51 79.3598 1338.87 80.2316C1339.23 81.1034 1339.84 81.8486 1340.63 82.3729C1341.41 82.8971 1342.33 83.1769 1343.28 83.1769C1343.9 83.1769 1344.52 83.0535 1345.1 82.8138C1345.68 82.574 1346.21 82.2225 1346.65 81.7795C1347.09 81.3364 1347.44 80.8105 1347.68 80.2316C1347.92 79.6527 1348.04 79.0323 1348.04 78.4057ZM1335.33 78.4057C1335.33 77.4621 1335.05 76.5396 1334.53 75.755C1334 74.9704 1333.26 74.3588 1332.39 73.9977C1331.52 73.6366 1330.56 73.5421 1329.63 73.7262C1328.71 73.9103 1327.86 74.3647 1327.19 75.032C1326.52 75.6992 1326.07 76.5494 1325.89 77.4749C1325.7 78.4004 1325.8 79.3598 1326.16 80.2316C1326.52 81.1034 1327.13 81.8486 1327.91 82.3729C1328.7 82.8971 1329.62 83.1769 1330.56 83.1769C1331.19 83.1769 1331.81 83.0535 1332.39 82.8138C1332.97 82.574 1333.49 82.2225 1333.93 81.7795C1334.38 81.3364 1334.73 80.8105 1334.97 80.2316C1335.21 79.6527 1335.33 79.0323 1335.33 78.4057Z" fill="white"/>
</g>
<g opacity="0.5" clip-path="url(#clip3_17_2369)">
<path d="M1342.56 32.5134C1342.67 31.283 1343.16 30.1177 1343.96 29.1813C1344.77 28.2449 1345.85 27.5847 1347.05 27.2935L1351.65 26.1688L1348.32 12.5322L1350.33 12.3361C1354.87 11.8913 1358.83 13.2822 1362.1 16.4703C1364.46 18.7683 1365.98 21.5678 1366.89 23.7163C1369.89 25.0445 1372.74 27.1863 1375.38 30.092C1377.6 32.5404 1379.67 35.5388 1381.54 39.0041C1384.7 44.8591 1386.19 49.9933 1386.25 50.209L1387.72 56.2133L1384.33 57.0414L1382.89 51.1421C1382.63 50.2797 1376.91 31.4421 1364.9 26.6689L1364.2 26.389L1363.92 25.6835C1362.49 22.0306 1359.21 16.2221 1352.71 15.7776L1355.87 28.7336L1347.87 30.6865C1347.38 30.8048 1346.94 31.0741 1346.61 31.4564C1346.28 31.8387 1346.08 32.3148 1346.04 32.8178C1345.66 37.1407 1344.55 42.7044 1341.51 45.9365L1343.59 49.7558C1344.33 51.1202 1345.5 52.1947 1346.93 52.8034C1348.35 53.4122 1349.94 53.5192 1351.43 53.1069C1354.45 52.2737 1357.7 51.898 1361.11 51.9896L1362.45 52.0252L1364.83 61.8036L1361.44 62.6319L1359.7 55.4713C1357.22 55.4897 1354.75 55.8265 1352.36 56.4735C1350.11 57.0896 1347.72 56.9268 1345.57 56.0114C1343.42 55.0961 1341.65 53.4818 1340.53 51.4302L1337.06 45.0779L1338.27 44.1702C1340.53 42.4727 1342.05 38.3329 1342.56 32.5134Z" fill="white"/>
</g>
<g opacity="0.4">
<path d="M124 131.658C124 132.337 123.923 132.997 123.777 133.632C124.411 133.485 125.071 133.408 125.75 133.408C130.582 133.408 134.5 137.326 134.5 142.158C134.5 146.991 130.582 150.908 125.75 150.908C123.094 150.908 120.294 150.334 117.915 151.515C115.14 152.893 112.59 154.718 110.376 156.933L105.525 161.783C103.31 163.999 101.484 166.548 100.107 169.323C98.926 171.702 99.5 174.502 99.5 177.158C99.5 181.991 95.5825 185.908 90.75 185.908C85.9175 185.908 82 181.991 82 177.158C82 176.48 82.0772 175.819 82.2235 175.185C81.5892 175.331 80.9287 175.408 80.25 175.408C75.4175 175.408 71.5 171.491 71.5 166.658C71.5 161.826 75.4175 157.908 80.25 157.908C82.9063 157.908 85.7067 158.483 88.086 157.301C90.8611 155.924 93.4104 154.099 95.6253 151.884L100.476 147.033C102.691 144.818 104.516 142.269 105.893 139.495C107.074 137.115 106.5 134.315 106.5 131.658C106.5 126.826 110.418 122.908 115.25 122.908C120.082 122.908 124 126.826 124 131.658Z" stroke="white" stroke-width="2" stroke-linecap="round" stroke-linejoin="round"/>
</g>
<g opacity="0.4" clip-path="url(#clip4_17_2369)">
<path d="M186.45 43.7332L176.192 36.5845C175.433 36.0562 174.558 35.7165 173.641 35.5936C172.724 35.4707 171.79 35.5682 170.918 35.8779L158.195 40.4111L158.169 40.4208C151.635 42.855 147.03 45.8155 145.788 52.352C144.632 58.4366 146.5 67.3715 152.035 82.2276L152.711 84.0432L156.859 82.4978L159.262 97.1096L162.962 95.731L160.56 81.1192L161.789 80.6612C164.764 79.5829 167.196 77.3777 168.559 74.5218C169.799 71.9605 170.249 68.9207 169.861 65.731L169.857 65.7023L167.412 49.62L163.703 51.002L166.018 66.2265C166.501 70.2693 165.289 75.2221 160.436 77.03L154.996 79.0567C150.307 66.1671 148.638 58.111 149.595 53.0747C150.397 48.8472 152.993 46.4857 159.509 44.0562L172.219 39.5279C172.51 39.4247 172.821 39.3922 173.126 39.4331C173.432 39.4741 173.724 39.5873 173.977 39.7635L185.58 47.8488L196.342 45.7626L197.059 47.6871L198.727 57.3289C199.219 60.1746 198.866 61.8322 195.526 63.5546L182.107 71.3463L187.656 86.5313L191.287 85.1785L186.861 73.066L197.347 66.9757C199.768 65.7185 201.335 64.2034 202.138 62.3449C202.824 60.756 202.949 59.0057 202.545 56.6685L200.816 46.6717L198.827 41.3338L186.45 43.7332Z" fill="white"/>
</g>
<g opacity="0.4" clip-path="url(#clip5_17_2369)">
<path d="M34.9182 105.435L33.368 89.0709C33.252 87.8599 32.8492 86.6939 32.1928 85.6696C31.5364 84.6454 30.6453 83.7923 29.5935 83.181L14.2316 74.2747L14.1997 74.2568C6.20441 69.7733 -0.679981 67.6707 -8.29084 71.9819C-15.376 75.9946 -22.7483 85.4636 -32.9426 103.643L-34.1884 105.865L-29.1122 108.711L-41.7239 123.542L-37.1957 126.081L-24.584 111.25L-23.0798 112.094C-19.4694 114.161 -15.1907 114.725 -11.1679 113.664C-7.54521 112.731 -4.11397 110.598 -1.24492 107.497L-1.21908 107.47L12.8311 91.3464L8.29187 88.8009L-5.0089 104.064C-8.65221 107.986 -14.6497 110.98 -20.5881 107.65L-27.2449 103.918C-18.3047 88.2573 -11.6437 79.7357 -5.77961 76.414C-0.857498 73.6254 3.71734 74.2212 11.693 78.6909L27.0383 87.588C27.3889 87.7917 27.686 88.076 27.9048 88.4175C28.1236 88.7589 28.2578 89.1476 28.2964 89.5513L30.0508 108.061L41.2919 117.081L39.9713 119.436L31.7193 129.304C29.2837 132.217 27.3211 133.272 22.7547 131.387L3.53347 124.552L-6.97813 143.026L-2.53468 145.517L5.85012 130.782L20.8713 136.121C24.1902 137.48 27.0421 137.764 29.5882 136.989C31.765 136.326 33.6272 134.965 35.6275 132.572L44.1832 122.34L47.8461 115.808L34.9182 105.435Z" fill="white"/>
</g>
<g opacity="0.5">
<path d="M112.656 95.3626C111.21 94.5613 110.141 93.2192 109.682 91.6305C109.105 89.6422 107.897 87.8951 106.241 86.6519C104.586 85.4087 102.571 84.7365 100.501 84.7363C98.43 84.7362 96.4154 85.4081 94.7595 86.6511C93.1036 87.8941 91.8958 89.641 91.3178 91.6292C90.8598 93.2184 89.7902 94.5611 88.3436 95.3626C86.3679 96.438 84.8811 98.2316 84.1908 100.372C83.5004 102.513 83.6594 104.838 84.6348 106.865C85.6102 108.891 87.3273 110.466 89.4311 111.262C91.5348 112.059 93.8641 112.016 95.9372 111.143C98.8601 109.94 102.14 109.94 105.063 111.143C107.136 112.017 109.466 112.06 111.57 111.264C113.674 110.468 115.392 108.893 116.367 106.866C117.343 104.838 117.502 102.514 116.811 100.372C116.12 98.2313 114.633 96.4376 112.656 95.3626ZM108.469 107.049C107.935 107.05 107.406 106.943 106.915 106.735C106.906 106.731 106.897 106.727 106.888 106.724C102.797 105.035 98.2032 105.035 94.112 106.724C94.103 106.727 94.0941 106.731 94.0853 106.735C93.1422 107.134 92.0817 107.154 91.1237 106.793C90.1658 106.431 89.3839 105.714 88.9403 104.791C88.4967 103.868 88.4253 102.809 88.741 101.835C89.0567 100.861 89.7353 100.046 90.636 99.5586C90.643 99.5547 90.6502 99.5508 90.6572 99.5468C91.9222 98.8482 93.0372 97.9072 93.9384 96.7776C94.8396 95.6479 95.5093 94.3518 95.9094 92.9632C96.1985 91.9692 96.8025 91.096 97.6304 90.4747C98.4583 89.8533 99.4655 89.5175 100.501 89.5176C101.536 89.5177 102.543 89.8537 103.371 90.4752C104.198 91.0967 104.802 91.97 105.091 92.964C105.491 94.3525 106.161 95.6485 107.062 96.778C107.963 97.9075 109.078 98.8484 110.343 99.5468C110.35 99.5508 110.357 99.5547 110.364 99.5586C111.144 99.9804 111.761 100.65 112.117 101.462C112.473 102.274 112.549 103.182 112.331 104.041C112.114 104.901 111.616 105.663 110.916 106.208C110.217 106.753 109.355 107.049 108.469 107.049ZM121.219 87.127C121.219 88.0726 120.938 88.997 120.413 89.7833C119.888 90.5695 119.141 91.1824 118.267 91.5443C117.394 91.9061 116.432 92.0008 115.505 91.8163C114.577 91.6318 113.725 91.1765 113.057 90.5078C112.388 89.8391 111.933 88.9872 111.748 88.0597C111.564 87.1323 111.658 86.1709 112.02 85.2973C112.382 84.4236 112.995 83.6769 113.781 83.1515C114.567 82.6261 115.492 82.3457 116.438 82.3457C117.065 82.3457 117.687 82.4694 118.267 82.7097C118.847 82.9499 119.374 83.3021 119.818 83.7461C120.262 84.1901 120.615 84.7172 120.855 85.2972C121.095 85.8773 121.219 86.4991 121.219 87.127ZM84.5625 91.9082C83.6169 91.9082 82.6925 91.6278 81.9062 91.1024C81.1199 90.577 80.5071 89.8303 80.1452 88.9567C79.7833 88.083 79.6886 87.1217 79.8731 86.1942C80.0576 85.2667 80.513 84.4148 81.1816 83.7461C81.8503 83.0774 82.7023 82.6221 83.6297 82.4376C84.5572 82.2531 85.5185 82.3478 86.3922 82.7097C87.2659 83.0715 88.0126 83.6844 88.538 84.4706C89.0633 85.2569 89.3438 86.1813 89.3438 87.127C89.3438 87.7548 89.2201 88.3766 88.9798 88.9567C88.7395 89.5368 88.3873 90.0638 87.9434 90.5078C87.4994 90.9518 86.9723 91.304 86.3922 91.5443C85.8121 91.7845 85.1904 91.9082 84.5625 91.9082ZM89.3438 77.5645C89.3438 76.6188 89.6242 75.6944 90.1495 74.9081C90.6749 74.1219 91.4216 73.509 92.2953 73.1472C93.169 72.7853 94.1303 72.6906 95.0578 72.8751C95.9852 73.0596 96.8372 73.5149 97.5059 74.1836C98.1745 74.8523 98.6299 75.7042 98.8144 76.6317C98.9989 77.5592 98.9042 78.5205 98.5423 79.3942C98.1804 80.2678 97.5676 81.0145 96.7813 81.5399C95.9951 82.0653 95.0706 82.3457 94.125 82.3457C93.4971 82.3457 92.8754 82.222 92.2953 81.9818C91.7152 81.7415 91.1881 81.3893 90.7441 80.9453C90.3002 80.5013 89.948 79.9743 89.7077 79.3942C89.4674 78.8141 89.3438 78.1923 89.3438 77.5645ZM102.094 77.5645C102.094 76.6188 102.374 75.6944 102.9 74.9081C103.425 74.1219 104.172 73.509 105.045 73.1472C105.919 72.7853 106.88 72.6906 107.808 72.8751C108.735 73.0596 109.587 73.5149 110.256 74.1836C110.925 74.8523 111.38 75.7042 111.564 76.6317C111.749 77.5592 111.654 78.5205 111.292 79.3942C110.93 80.2678 110.318 81.0145 109.531 81.5399C108.745 82.0653 107.821 82.3457 106.875 82.3457C106.247 82.3457 105.625 82.222 105.045 81.9818C104.465 81.7415 103.938 81.3893 103.494 80.9453C103.05 80.5013 102.698 79.9743 102.458 79.3942C102.217 78.8141 102.094 78.1923 102.094 77.5645Z" fill="white"/>
</g>
<g opacity="0.5" clip-path="url(#clip6_17_2369)">
<path d="M94.8452 31.5755C94.7365 30.3425 94.2439 29.1747 93.4368 28.2364C92.6297 27.298 91.5486 26.6364 90.3458 26.3446L85.7282 25.2175L89.0639 11.5522L87.0557 11.3557C82.5001 10.91 78.5266 12.3038 75.2466 15.4986C72.8819 17.8014 71.3591 20.6068 70.4447 22.7599C67.4349 24.0909 64.5753 26.2372 61.9343 29.149C59.7086 31.6025 57.6285 34.6073 55.7516 38.0798C52.5803 43.9472 51.089 49.0921 51.0271 49.3083L49.5575 55.3252L52.9572 56.1551L54.4002 50.2434C54.6561 49.3792 60.3984 30.502 72.4369 25.7187L73.1426 25.4382L73.4199 24.7312C74.8555 21.0706 78.1498 15.2499 84.6672 14.8045L81.4981 27.7877L89.5158 29.7448C90.0078 29.8633 90.4502 30.1331 90.7808 30.5162C91.1114 30.8994 91.3135 31.3765 91.3588 31.8805C91.7376 36.2125 92.8446 41.7879 95.9001 45.0269L93.8092 48.8542C93.0728 50.2214 91.8942 51.2982 90.4661 51.9082C89.0381 52.5183 87.4453 52.6255 85.9483 52.2123C82.9245 51.3774 79.6571 51.0009 76.2365 51.0927L74.9 51.1284L72.5081 60.9274L75.9083 61.7573L77.6599 54.5817C80.145 54.6001 82.6174 54.9376 85.0165 55.586C87.2742 56.2034 89.6743 56.0403 91.8276 55.123C93.981 54.2057 95.7614 52.588 96.8803 50.5321L100.358 44.1664L99.1473 43.2568C96.883 41.5557 95.3552 37.4072 94.8452 31.5755Z" fill="white"/>
</g>
</g>
<defs>
<clipPath id="clip0_17_2369">
<rect width="1440" height="201" fill="white"/>
</clipPath>
<clipPath id="clip1_17_2369">
<rect width="61.8294" height="61.8642" fill="white" transform="matrix(-0.936996 -0.349339 -0.348883 0.937166 1302.52 42.969)"/>
</clipPath>
<clipPath id="clip2_17_2369">
<rect width="81.2932" height="81.3248" fill="white" transform="matrix(-0.872068 0.489385 0.488831 0.872378 1444.25 53.3024)"/>
</clipPath>
<clipPath id="clip3_17_2369">
<rect width="55.8432" height="55.8801" fill="white" transform="matrix(-0.971436 0.2373 0.236967 0.971518 1377.43 3)"/>
</clipPath>
<clipPath id="clip4_17_2369">
<rect width="62" height="62" fill="white" transform="translate(135 42.0531) rotate(-20.4329)"/>
</clipPath>
<clipPath id="clip5_17_2369">
<rect width="81.5104" height="81.5104" fill="white" transform="translate(-7.13257 52.4082) rotate(29.282)"/>
</clipPath>
<clipPath id="clip6_17_2369">
<rect width="56" height="56" fill="white" transform="translate(59.8713 2) rotate(13.7174)"/>
</clipPath>
</defs>
</svg>
